<svg width="55" height="51" viewBox="0 0 55 51" fill="none" xmlns="http://www.w3.org/2000/svg">
<path d="M53.6689 27.1457V49.5565H14.9476V27.3701C20.3338 30.1153 26.2535 31.6573 32.2961 31.889V32.7866C32.2961 33.0243 32.343 33.2596 32.4341 33.4792C32.5253 33.6987 32.6589 33.8981 32.8273 34.066C32.9956 34.234 33.1955 34.3671 33.4155 34.4578C33.6354 34.5485 33.8711 34.5951 34.1091 34.5947H37.8142C38.052 34.5951 38.2876 34.5485 38.5074 34.4578C38.7272 34.367 38.9269 34.2339 39.0951 34.0659C39.2633 33.8979 39.3966 33.6985 39.4875 33.479C39.5784 33.2594 39.625 33.0242 39.6246 32.7866V31.5779C44.5337 30.951 49.2905 29.4498 53.6689 27.1457Z" fill="#EFFF10"/>
<path d="M53.6689 16.7512V27.1457C49.2905 29.4498 44.5337 30.951 39.6246 31.5779V31.0678C39.625 30.8303 39.5784 30.595 39.4875 30.3755C39.3966 30.156 39.2633 29.9566 39.0951 29.7886C38.9269 29.6206 38.7272 29.4875 38.5074 29.3967C38.2876 29.306 38.052 29.2594 37.8142 29.2598H34.1091C33.8711 29.2594 33.6354 29.306 33.4155 29.3967C33.1955 29.4874 32.9956 29.6205 32.8273 29.7884C32.6589 29.9564 32.5253 30.1558 32.4341 30.3753C32.343 30.5949 32.2961 30.8302 32.2961 31.0678V31.8915C26.2533 31.659 20.3336 30.1162 14.9476 27.3701V16.7512C14.9476 15.0137 14.2565 13.3473 13.0263 12.1187C11.796 10.8901 10.1275 10.1999 8.3877 10.1999H47.1064C48.8464 10.1999 50.5152 10.89 51.7458 12.1186C52.9765 13.3471 53.6682 15.0135 53.6689 16.7512Z" fill="#EFFF10"/>
<path d="M39.6323 31.5779V32.7943C39.6327 33.0318 39.5861 33.2671 39.4952 33.4866C39.4044 33.7061 39.271 33.9056 39.1028 34.0736C38.9346 34.2415 38.7349 34.3747 38.5151 34.4654C38.2953 34.5562 38.0598 34.6027 37.8219 34.6024H34.1091C33.8712 34.6027 33.6355 34.5562 33.4155 34.4655C33.1956 34.3748 32.9957 34.2416 32.8273 34.0737C32.6589 33.9058 32.5253 33.7063 32.4342 33.4868C32.3431 33.2673 32.2961 33.032 32.2961 32.7943V31.073C32.2961 30.8353 32.3431 30.6 32.4342 30.3804C32.5253 30.1609 32.6589 29.9615 32.8273 29.7936C32.9957 29.6256 33.1956 29.4925 33.4155 29.4018C33.6355 29.3111 33.8712 29.2646 34.1091 29.2649H37.8142C38.0521 29.2646 38.2877 29.3111 38.5075 29.4018C38.7273 29.4926 38.927 29.6257 39.0952 29.7937C39.2633 29.9617 39.3967 30.1611 39.4875 30.3806C39.5784 30.6002 39.625 30.8354 39.6247 31.073L39.6323 31.5779Z" fill="white"/>
<path d="M14.9476 27.3701V49.5565H1.82776V16.7512C1.82776 15.0137 2.51889 13.3473 3.74912 12.1187C4.97934 10.8901 6.64789 10.1999 8.38769 10.1999C10.1275 10.1999 11.796 10.8901 13.0263 12.1187C14.2565 13.3473 14.9476 15.0137 14.9476 16.7512V27.3701Z" fill="white"/>
<path d="M8.38769 10.1999C6.64789 10.1999 4.97934 10.8901 3.74912 12.1187C2.51889 13.3473 1.82776 15.0137 1.82776 16.7512V49.5565H14.9476V16.7512C14.9476 15.0137 14.2565 13.3473 13.0263 12.1187C11.796 10.8901 10.1275 10.1999 8.38769 10.1999Z" stroke="#292929" stroke-width="2" stroke-linecap="round" stroke-linejoin="round"/>
<path d="M8.3877 10.1999H47.1064C48.8464 10.1999 50.5152 10.89 51.7458 12.1186C52.9765 13.3471 53.6682 15.0135 53.6689 16.7512V49.5565H14.9476" stroke="#292929" stroke-width="2" stroke-linecap="round" stroke-linejoin="round"/>
<path d="M39.6323 31.5779C44.5414 30.951 49.2981 29.4498 53.6766 27.1457" stroke="#292929" stroke-width="2" stroke-linecap="round" stroke-linejoin="round"/>
<path d="M14.9476 27.3701C20.3338 30.1153 26.2535 31.6572 32.2961 31.889" stroke="#292929" stroke-width="2" stroke-linecap="round" stroke-linejoin="round"/>
<path d="M39.6323 31.5779V32.7943C39.6327 33.0318 39.5861 33.2671 39.4952 33.4866C39.4044 33.7061 39.271 33.9056 39.1028 34.0736C38.9346 34.2415 38.7349 34.3747 38.5151 34.4654C38.2953 34.5562 38.0598 34.6027 37.8219 34.6024H34.1091C33.8712 34.6027 33.6355 34.5562 33.4155 34.4655C33.1956 34.3748 32.9957 34.2416 32.8273 34.0737C32.6589 33.9058 32.5253 33.7063 32.4342 33.4868C32.3431 33.2673 32.2961 33.032 32.2961 32.7943V31.073C32.2961 30.8353 32.3431 30.6 32.4342 30.3804C32.5253 30.1609 32.6589 29.9615 32.8273 29.7936C32.9957 29.6256 33.1956 29.4925 33.4155 29.4018C33.6355 29.3111 33.8712 29.2646 34.1091 29.2649H37.8142C38.0521 29.2646 38.2877 29.3111 38.5075 29.4018C38.7273 29.4926 38.927 29.6257 39.0952 29.7937C39.2633 29.9617 39.3967 30.1611 39.4875 30.3806C39.5784 30.6002 39.625 30.8354 39.6247 31.073L39.6323 31.5779Z" stroke="#292929" stroke-width="2" stroke-linecap="round" stroke-linejoin="round"/>
<path d="M20.4504 10.1999C20.4504 10.1999 21.2293 2.22297 29.2345 1.17231C29.8272 1.09565 30.4243 1.05816 31.0219 1.0601C40.6997 1.0601 41.5908 10.1999 41.5908 10.1999" stroke="#292929" stroke-width="2" stroke-linecap="round" stroke-linejoin="round"/>
<path d="M29.2422 1.17231C37.2474 2.21533 38.0262 10.1999 38.0262 10.1999" stroke="#292929" stroke-width="2" stroke-linecap="round" stroke-linejoin="round"/>
<path d="M16.8883 10.1999C16.8883 10.1999 17.7795 1.0601 27.4572 1.0601H31.0321" stroke="#292929" stroke-width="2" stroke-linecap="round" stroke-linejoin="round"/>
</svg>
