<svg width="258" height="241" viewBox="0 0 258 241" fill="none" xmlns="http://www.w3.org/2000/svg">
<path d="M131.125 50.6521V92.6495H65.1505V7.22205H79.0945V12.5407H117.176V7.22205H131.119V19.5722C128.519 21.2485 126.38 23.5492 124.899 26.2639C123.418 28.9786 122.642 32.0207 122.642 35.1121C122.642 38.2035 123.418 41.2457 124.899 43.9603C126.38 46.675 128.519 48.9757 131.119 50.6521H131.125Z" fill="white"/>
<path d="M141.167 16.6184C145.619 16.6198 149.921 18.2233 153.285 21.135C156.65 24.0467 158.851 28.0717 159.485 32.4723C160.12 36.873 159.145 41.3547 156.74 45.0962C154.335 48.8377 150.661 51.5884 146.39 52.8444C142.12 54.1003 137.539 53.7773 133.488 51.9346C129.436 50.0918 126.185 46.8528 124.33 42.8109C122.476 38.7691 122.141 34.1951 123.389 29.9271C124.636 25.6591 127.382 21.983 131.122 19.5722C134.116 17.6432 137.604 16.6176 141.167 16.6184ZM152.442 31.2361L148.076 26.8868L140.122 34.8505L135.497 30.5355L131.142 34.8963L140.27 43.4204L152.442 31.2361Z" fill="#292929"/>
<path d="M148.076 26.8868L152.442 31.2361L140.27 43.4204L131.142 34.8962L135.497 30.5355L140.122 34.8505L148.076 26.8868Z" fill="white"/>
<path d="M117.178 7.22205V12.5407H79.0974V5.69794H88.8324C89.9063 4.24137 91.308 3.05729 92.9244 2.24123C94.5408 1.42518 96.3267 1 98.1379 1C99.9491 1 101.735 1.42518 103.351 2.24123C104.968 3.05729 106.369 4.24137 107.443 5.69794H117.178V7.22205Z" fill="#89E539"/>
<path d="M131.125 50.6521C134.584 52.8809 138.687 53.8956 142.787 53.5358C146.888 53.1761 150.751 51.4624 153.767 48.6654C156.784 45.8684 158.781 42.1476 159.444 38.0906C160.107 34.0336 159.398 29.8716 157.428 26.262C155.459 22.6524 152.342 19.801 148.569 18.158C144.796 16.5149 140.582 16.1741 136.594 17.1891C132.605 18.2042 129.069 20.5174 126.543 23.7633C124.018 27.0092 122.647 31.0029 122.647 35.1136C122.64 38.2063 123.412 41.2511 124.894 43.9669C126.376 46.6826 128.519 48.9818 131.125 50.6521Z" stroke="#292929" stroke-width="2" stroke-linecap="round" stroke-linejoin="round"/>
<path d="M79.0945 7.22205V5.69794H88.8295C89.9034 4.24137 91.3051 3.05729 92.9216 2.24123C94.538 1.42518 96.3238 1 98.135 1C99.9462 1 101.732 1.42518 103.348 2.24123C104.965 3.05729 106.367 4.24137 107.441 5.69794H117.176V12.5407H79.0945V7.22205Z" stroke="#292929" stroke-width="2" stroke-linecap="round" stroke-linejoin="round"/>
<path d="M117.178 7.22205H131.122V19.5722" stroke="#292929" stroke-width="2" stroke-linecap="round" stroke-linejoin="round"/>
<path d="M131.122 50.6549V92.6494H65.1505V7.22205H79.0945" stroke="#292929" stroke-width="2" stroke-linecap="round" stroke-linejoin="round"/>
<path d="M131.142 34.8962L135.497 30.5355L140.122 34.8505L148.076 26.8868L152.442 31.2361L140.27 43.4204L131.142 34.8962Z" stroke="#292929" stroke-width="2" stroke-linecap="round" stroke-linejoin="round"/>
<path d="M246.694 155.61H241.449C239.279 155.614 237.153 155.002 235.318 153.844C233.484 152.687 232.017 151.032 231.089 149.073C231.009 148.901 230.918 148.696 230.846 148.521L226.17 137.401L246.31 127.964C250.84 137.432 253.683 143.514 255.146 146.937C255.969 148.864 256.282 150.969 256.054 153.052C255.827 155.134 255.066 157.123 253.846 158.827L248.08 166.879C247.544 167.617 246.744 168.12 245.845 168.283C244.947 168.445 244.021 168.255 243.26 167.751C242.499 167.248 241.962 166.47 241.762 165.581C241.561 164.692 241.713 163.759 242.184 162.979L246.694 155.61Z" fill="white"/>
<path d="M208.699 96.0351V109.266H168.9C167.623 99.8554 167.276 94.5596 168.9 85.1633L151.832 99.8897C148.928 102.394 145.248 103.821 141.413 103.929C137.578 104.038 133.823 102.823 130.782 100.487L106.006 81.4431C106.724 75.8842 106.474 70.2432 105.267 64.7694L118.536 53.4658L141.814 82.3295L162.171 64.8266C164.061 63.2019 166.52 62.3934 169.006 62.579C171.493 62.7645 173.804 63.9289 175.431 65.816C175.885 66.3433 176.279 66.9186 176.608 67.5316C178.082 69.6359 180.043 71.353 182.325 72.5365C184.607 73.7201 187.141 74.3349 189.713 74.3287C194.798 74.3287 199.187 71.8123 202.217 68.2751C202.411 68.0492 202.6 67.8205 202.789 67.586C203.825 66.4373 205.129 65.5616 206.584 65.0367C208.04 64.5117 209.603 64.3536 211.135 64.5765C212.666 64.7994 214.119 65.3963 215.365 66.3144C216.61 67.2324 217.609 68.4432 218.274 69.8393C231.129 96.4697 240.237 115.262 246.316 127.964L221.246 139.74L208.699 96.0351Z" fill="#EFFF10"/>
<path d="M212.719 130.95C213.275 133.96 213.161 137.055 212.386 140.017C211.61 142.978 210.192 145.733 208.232 148.086C206.271 150.439 203.817 152.333 201.042 153.633C198.267 154.933 195.24 155.608 192.175 155.61H175.969C174.751 155.611 173.583 156.093 172.719 156.951L100.566 228.77L78.2699 206.503L158.804 126.088L168.906 109.266H208.705L212.719 130.95Z" fill="#89E539"/>
<path d="M202.783 67.5774C202.603 67.8119 202.414 68.0406 202.211 68.2665C202.397 68.0292 202.583 67.7976 202.783 67.5774Z" fill="white"/>
<path d="M79.2978 40.0176C79.3703 39.5272 79.5767 39.0662 79.8944 38.6854C80.2122 38.3045 80.6289 38.0185 81.0988 37.8587L86.1982 35.9457C82.1097 33.014 77.5862 30.7408 72.7925 29.2087C72.5235 28.685 72.4174 28.0929 72.4877 27.5084C72.5579 26.924 72.8015 26.3738 73.187 25.9286C73.5725 25.4833 74.0825 25.1632 74.6514 25.0094C75.2204 24.8556 75.8224 24.8751 76.3802 25.0653C82.7881 27.2099 98.1866 32.6887 105.66 38.1933C105.92 38.3877 106.175 38.5821 106.416 38.7652C106.882 39.1492 107.316 39.571 107.713 40.0262C107.807 40.1349 107.927 40.2778 108.016 40.3894L118.547 53.4515L105.267 64.7694C103.861 58.4076 101.173 52.3981 97.3677 47.1063C96.0735 45.3048 94.7908 45.4078 92.8953 44.6986C90.7284 43.8687 88.4353 43.4151 86.1152 43.3575C85.4852 43.3575 84.8009 43.3575 84.0536 43.3575C83.4924 43.3575 82.8921 43.3766 82.2527 43.4147C80.1911 43.5119 79.0401 41.6561 79.2978 40.0176Z" fill="white"/>
<path d="M98.888 70.2024C98.5898 67.7358 98.0656 65.3017 97.3219 62.9308C94.904 55.2605 90.2942 48.4631 84.0593 43.3747C84.8066 43.3747 85.491 43.3747 86.1209 43.3747C88.4387 43.4311 90.7298 43.8827 92.8953 44.71C94.7965 45.4192 96.0735 45.3163 97.3677 47.1177C103.304 55.3803 106.468 65.3087 106.404 75.4782C106.394 77.4786 106.26 79.4764 106.003 81.4603C103.232 102.766 86.433 119.778 65.2737 122.992C62.7892 123.368 60.2791 123.55 57.7662 123.535C55.4362 123.522 53.1101 123.342 50.8057 122.997C39.4042 121.276 28.9935 115.544 21.4504 106.834C13.9074 98.1233 9.72836 87.0083 9.66674 75.4925C9.52072 48.8992 31.1696 27.0498 57.7892 26.9183C67.9724 26.8548 77.9139 30.0151 86.1867 35.9457L81.0873 37.8587C80.6174 38.0185 80.2007 38.3045 79.883 38.6854C79.5653 39.0662 79.3588 39.5272 79.2863 40.0176C71.5345 35.3504 62.4584 33.3653 53.4628 34.3696C44.4673 35.374 36.0542 39.3118 29.5258 45.5734C22.9974 51.835 18.7179 60.0713 17.3497 69.0072C15.9815 77.943 17.601 87.0801 21.9574 95.004C26.3139 102.928 33.1643 109.197 41.4482 112.84C49.7321 116.483 58.9875 117.297 67.7817 115.157C76.5758 113.016 84.4182 108.04 90.0948 100.999C95.7714 93.9581 98.9656 85.2445 99.183 76.2074C99.183 75.8814 99.183 75.5526 99.183 75.2237C99.1878 73.5455 99.0893 71.8686 98.888 70.2024Z" fill="white"/>
<path d="M105.648 38.1933C105.906 38.3734 106.158 38.5679 106.404 38.7652C106.158 38.5822 105.909 38.3877 105.648 38.1933Z" fill="white"/>
<path d="M100.56 228.75L92.2568 237.043L88.4487 233.239L91.5753 230.117H91.1058C87.3181 230.043 83.7066 228.505 81.03 225.828L68.2371 213.049L67.9508 204.533C73.1189 206.64 78.6707 210.338 80.403 208.608L100.56 228.75Z" fill="#292929"/>
<path d="M99.1944 75.218C99.1944 75.5468 99.1944 75.8757 99.1944 76.2016L95.3376 73.2363L98.8881 70.2024C99.0929 71.8664 99.1952 73.5414 99.1944 75.218Z" fill="white"/>
<path d="M97.3219 62.9279L90.4673 55.11C89.4596 53.9644 88.6922 52.6287 88.2102 51.1818C87.7283 49.7349 87.5416 48.2061 87.6613 46.686C92.1023 51.2761 95.4101 56.8374 97.3219 62.9279Z" fill="white"/>
<path d="M68.7467 228.77C68.816 230.188 68.6021 231.605 68.1175 232.939C67.633 234.273 66.8875 235.498 65.9245 236.542C64.9615 237.586 63.8002 238.428 62.5082 239.019C61.2161 239.61 59.8193 239.939 58.3989 239.985C56.9785 240.032 55.563 239.796 54.2347 239.292C52.9065 238.787 51.692 238.023 50.6621 237.045C49.6323 236.067 48.8075 234.894 48.2359 233.595C47.6643 232.295 47.3572 230.895 47.3326 229.476C47.3326 229.25 47.3326 228.999 47.3326 228.776L50.2102 141.118H65.8692L67.9508 204.533C64.5979 203.166 61.4025 202.465 59.5185 204.347L68.2314 213.048L68.7467 228.77Z" fill="white"/>
<path d="M67.9508 204.544L68.2371 213.06L59.5243 204.358C61.4026 202.477 64.5979 203.169 67.9508 204.544Z" fill="#292929"/>
<path d="M65.2737 122.974L65.8692 141.118H50.2102L50.3906 135.631C51.3369 135.585 52.2314 135.186 52.8962 134.511C53.561 133.837 53.9473 132.938 53.9784 131.992C54.0094 131.047 53.6829 130.124 53.0637 129.408C52.4445 128.692 51.5781 128.234 50.6368 128.127L50.8057 122.98C53.111 123.325 55.4381 123.505 57.7691 123.518C60.281 123.532 62.7902 123.351 65.2737 122.974Z" fill="#89E539"/>
<path d="M50.6368 128.139C51.5781 128.246 52.4445 128.703 53.0637 129.419C53.6829 130.135 54.0094 131.058 53.9784 132.004C53.9473 132.949 53.561 133.849 52.8962 134.523C52.2314 135.197 51.3369 135.597 50.3906 135.642L50.6368 128.139Z" fill="#292929"/>
<path d="M106.404 38.7737C106.164 38.5821 105.909 38.3876 105.648 38.2018C98.2037 32.6744 82.7766 27.2185 76.3687 25.0738C75.8119 24.8874 75.2122 24.8707 74.6459 25.0259C74.0796 25.181 73.5723 25.501 73.1888 25.9451C72.8052 26.3892 72.5627 26.9373 72.4921 27.5195C72.4216 28.1017 72.5261 28.6917 72.7925 29.2144" stroke="#292929" stroke-width="2" stroke-linecap="round" stroke-linejoin="round"/>
<path d="M241.32 155.61H249.569C249.971 155.609 250.364 155.492 250.7 155.272C251.037 155.053 251.302 154.74 251.464 154.372C251.626 154.005 251.677 153.598 251.611 153.202C251.546 152.806 251.366 152.437 251.095 152.141C250.747 151.758 250.266 151.521 249.749 151.481C246.398 151.257 243.176 150.105 240.444 148.155" stroke="#292929" stroke-width="2" stroke-linecap="round" stroke-linejoin="round"/>
<path d="M208.699 109.266V85.1633" stroke="#292929" stroke-width="2" stroke-linecap="round" stroke-linejoin="round"/>
<path d="M80.403 208.619C78.6707 210.349 73.1189 206.652 67.9508 204.544C64.5979 203.178 61.4025 202.477 59.5185 204.359L81.0243 225.839C83.7008 228.517 87.3123 230.054 91.1 230.128H91.5696L88.443 233.251L92.2511 237.054L100.554 228.761" stroke="#292929" stroke-width="2" stroke-linecap="round" stroke-linejoin="round"/>
<path d="M241.449 155.61C239.279 155.614 237.153 155.002 235.318 153.844C233.484 152.687 232.017 151.032 231.089 149.073C231.009 148.901 230.918 148.696 230.846 148.521L226.17 137.401" stroke="#292929" stroke-width="2" stroke-linecap="round" stroke-linejoin="round"/>
<path d="M97.3247 62.9308L90.4673 55.11C89.4596 53.9644 88.6922 52.6287 88.2102 51.1818C87.7283 49.7349 87.5416 48.2061 87.6613 46.686" stroke="#292929" stroke-width="2" stroke-linecap="round" stroke-linejoin="round"/>
<path d="M202.219 68.2665C202.414 68.0406 202.603 67.8119 202.792 67.5774" stroke="#292929" stroke-width="2" stroke-linecap="round" stroke-linejoin="round"/>
<path d="M105.648 38.1933C105.906 38.3734 106.158 38.5679 106.404 38.7652C106.87 39.15 107.303 39.5717 107.701 40.0262C107.796 40.1349 107.916 40.2778 108.005 40.3894L141.814 82.3239L162.171 64.8209C164.061 63.1962 166.52 62.3878 169.006 62.5733C171.493 62.7589 173.804 63.9232 175.431 65.8103C175.885 66.3376 176.279 66.9129 176.608 67.526C178.082 69.6302 180.043 71.3473 182.325 72.5309C184.607 73.7144 187.141 74.3292 189.713 74.323C194.798 74.323 199.187 71.8066 202.217 68.2694" stroke="#292929" stroke-width="2" stroke-linecap="round" stroke-linejoin="round"/>
<path d="M202.217 68.2722C202.394 68.0349 202.58 67.8033 202.789 67.5831C203.825 66.4344 205.129 65.5588 206.584 65.0338C208.04 64.5088 209.603 64.3508 211.135 64.5737C212.666 64.7965 214.119 65.3935 215.365 66.3115C216.61 67.2295 217.609 68.4403 218.274 69.8364C231.129 96.4669 253.689 143.511 255.152 146.934C255.975 148.861 256.288 150.967 256.06 153.049C255.832 155.131 255.072 157.12 253.852 158.824L248.086 166.876C247.55 167.614 246.749 168.117 245.851 168.28C244.953 168.442 244.027 168.252 243.266 167.749C242.505 167.245 241.968 166.467 241.767 165.578C241.567 164.689 241.718 163.756 242.19 162.976L246.697 155.618" stroke="#292929" stroke-width="2" stroke-linecap="round" stroke-linejoin="round"/>
<path d="M246.31 127.953L221.24 139.728L208.699 96.0351" stroke="#292929" stroke-width="2" stroke-linecap="round" stroke-linejoin="round"/>
<path d="M79.3035 40.0205C73.8687 36.7454 67.7491 34.7702 61.423 34.249C55.097 33.7279 48.736 34.6751 42.8373 37.0165C36.9387 39.3579 31.6622 43.0301 27.4203 47.746C23.1785 52.4619 20.0863 58.0937 18.3855 64.2011C16.6847 70.3085 16.4214 76.726 17.6161 82.952C18.8109 89.1779 21.4313 95.0435 25.2725 100.09C29.1137 105.137 34.0717 109.228 39.7588 112.043C45.4458 114.859 51.7079 116.323 58.0554 116.32C80.4545 116.32 98.6418 98.4485 99.1973 76.2017C99.1973 75.8757 99.1973 75.5468 99.1973 75.218C99.1957 73.5414 99.0924 71.8665 98.888 70.2024C97.5852 59.6876 92.2742 50.079 84.0593 43.3747" stroke="#292929" stroke-width="2" stroke-linecap="round" stroke-linejoin="round"/>
<path d="M84.0593 43.3604C83.4981 43.3604 82.8978 43.3794 82.2584 43.4176C80.1911 43.5119 79.043 41.6561 79.2978 40.0176C79.3703 39.5272 79.5767 39.0662 79.8944 38.6854C80.2122 38.3045 80.6289 38.0184 81.0988 37.8587L86.1982 35.9457C77.9254 30.0151 67.9838 26.8548 57.8006 26.9183C31.1725 27.0498 9.53216 48.9078 9.67819 75.4925C9.74346 87.0036 13.9227 98.1131 21.4631 106.82C29.0035 115.526 39.4092 121.257 50.8057 122.98C53.111 123.325 55.4381 123.505 57.7691 123.518C60.2819 123.533 62.7921 123.351 65.2765 122.974C86.4358 119.766 103.237 102.749 106.006 81.4431C106.724 75.8842 106.474 70.2432 105.267 64.7694C103.861 58.4076 101.173 52.3981 97.3677 47.1063C96.0735 45.3048 94.7907 45.4078 92.8953 44.6986C90.7283 43.8687 88.4352 43.4151 86.1151 43.3575C85.491 43.3461 84.8066 43.3489 84.0593 43.3604Z" stroke="#292929" stroke-width="2" stroke-linecap="round" stroke-linejoin="round"/>
<path d="M118.538 53.4572L105.267 64.7637" stroke="#292929" stroke-width="2" stroke-linecap="round" stroke-linejoin="round"/>
<path d="M98.8909 70.1967L95.3262 73.2364L99.183 76.2017" stroke="#292929" stroke-width="2" stroke-linecap="round" stroke-linejoin="round"/>
<path d="M106.003 81.4431L130.782 100.487C133.824 102.825 137.581 104.042 141.418 103.933C145.255 103.824 148.936 102.396 151.841 99.8898L168.908 85.1634C167.285 94.5597 167.631 99.8554 168.908 109.266L158.807 126.088L78.2842 206.503L100.58 228.77L172.734 156.951C173.597 156.093 174.765 155.611 175.984 155.61H192.189C195.254 155.608 198.282 154.933 201.056 153.633C203.831 152.333 206.286 150.439 208.246 148.086C210.206 145.733 211.624 142.978 212.4 140.017C213.175 137.055 213.289 133.96 212.733 130.95L208.725 109.266H168.926" stroke="#292929" stroke-width="2" stroke-linecap="round" stroke-linejoin="round"/>
<path d="M65.2736 122.974L68.7468 228.776C68.8164 230.194 68.6027 231.612 68.1182 232.946C67.6337 234.281 66.8881 235.506 65.9247 236.551C64.9614 237.595 63.7996 238.437 62.507 239.028C61.2145 239.619 59.8171 239.948 58.3962 239.994C56.9753 240.041 55.5593 239.804 54.2308 239.299C52.9023 238.793 51.6878 238.029 50.6581 237.05C49.6284 236.071 48.804 234.897 48.2331 233.597C47.6622 232.297 47.3561 230.896 47.3326 229.476C47.3326 229.25 47.3326 228.999 47.3326 228.776L50.8057 122.989" stroke="#292929" stroke-width="2" stroke-linecap="round" stroke-linejoin="round"/>
<path d="M50.2102 141.129H65.8692" stroke="#292929" stroke-width="2" stroke-linecap="round" stroke-linejoin="round"/>
<path d="M50.3906 135.642C51.3369 135.597 52.2314 135.197 52.8962 134.523C53.561 133.849 53.9473 132.949 53.9784 132.004C54.0094 131.058 53.6829 130.135 53.0637 129.419C52.4445 128.703 51.5781 128.246 50.6368 128.139" stroke="#292929" stroke-width="2" stroke-linecap="round" stroke-linejoin="round"/>
<path d="M205.881 60.2542H191.809C191.892 59.8482 191.972 59.445 192.046 59.0447C192.977 54.052 193.192 49.6083 191.809 45.2276C191.809 45.2276 187.66 46.1226 180.399 46.1912C180.119 46.1946 179.846 46.2753 179.609 46.4241C179.373 46.573 179.182 46.7844 179.059 47.0348C178.938 47.2807 178.83 47.5295 178.732 47.7868C178.689 47.3665 178.629 46.929 178.552 46.4858C178.315 45.1913 178.483 43.8552 179.033 42.6595C179.583 41.4637 180.489 40.4664 181.627 39.8031C183.631 38.6593 186.142 38.3734 188.152 39.337C192.195 36.8235 195.986 40.6839 197.171 45.1161C198.176 48.8677 205.881 60.2542 205.881 60.2542Z" fill="#292929"/>
<path d="M191.809 45.2276C193.2 49.6141 192.977 54.052 192.055 59.0504C190.637 59.8818 189.023 60.3192 187.379 60.3172C187.15 60.3172 186.921 60.3172 186.689 60.2914C184.711 60.136 182.834 59.3516 181.335 58.0532C179.835 56.7549 178.792 55.0109 178.357 53.0769C178.25 52.6068 178.182 52.1286 178.154 51.6472C178.073 50.3343 178.273 49.0192 178.741 47.7897C178.838 47.5324 178.947 47.2836 179.067 47.0377C179.191 46.7873 179.382 46.5759 179.618 46.427C179.855 46.2782 180.128 46.1975 180.407 46.1941C187.66 46.1226 191.809 45.2276 191.809 45.2276Z" fill="white"/>
<path d="M187.371 60.3114H174.303C175.986 58.1067 177.573 55.8763 178.337 53.0712C178.772 55.0051 179.815 56.7491 181.315 58.0475C182.814 59.3458 184.691 60.1302 186.669 60.2857C186.901 60.3028 187.142 60.3114 187.371 60.3114Z" fill="#292929"/>
<path d="M192.055 59.0504C190.637 59.8818 189.023 60.3191 187.379 60.3172C187.15 60.3172 186.921 60.3172 186.689 60.2914C184.712 60.1334 182.836 59.348 181.337 58.0501C179.838 56.7521 178.794 55.0096 178.357 53.0769C178.251 52.6065 178.183 52.1284 178.154 51.6472C178.073 50.3343 178.273 49.0192 178.741 47.7897C178.838 47.5324 178.947 47.2836 179.067 47.0377C179.191 46.7873 179.382 46.5759 179.618 46.427C179.855 46.2781 180.128 46.1975 180.407 46.1941C187.668 46.1255 191.817 45.2305 191.817 45.2305C193.2 49.6141 192.977 54.052 192.055 59.0504ZM192.055 59.0504C191.98 59.4507 191.9 59.8539 191.817 60.26H205.89C205.89 60.26 198.185 48.8735 197.18 45.1218C195.995 40.6896 192.204 36.8293 188.161 39.3428C186.157 38.3763 183.646 38.6708 181.636 39.8089C180.497 40.4721 179.592 41.4695 179.041 42.6652C178.491 43.861 178.323 45.197 178.56 46.4915C178.638 46.9376 178.698 47.3722 178.741 47.7926" stroke="#292929" stroke-width="2" stroke-linecap="round" stroke-linejoin="round"/>
<path d="M178.346 53.0712C177.581 55.8763 175.995 58.1067 174.311 60.3114H187.371" stroke="#292929" stroke-width="2" stroke-linecap="round" stroke-linejoin="round"/>
<path d="M75.6328 59.1877V92.6437H42.133V59.1877H75.6328ZM70.5449 81.709C70.5606 81.6924 70.5724 81.6725 70.5793 81.6507C70.5863 81.6289 70.5882 81.6058 70.5849 81.5832L69.8176 77.4513C69.8133 77.4282 69.8031 77.4066 69.7881 77.3886C69.773 77.3706 69.7536 77.3567 69.7317 77.3483C69.7111 77.337 69.6879 77.3311 69.6644 77.3311C69.6409 77.3311 69.6178 77.337 69.5971 77.3483L66.0725 79.6645C66.057 79.6766 66.0434 79.6911 66.0324 79.7074C66.0142 79.7342 66.0061 79.7666 66.0095 79.7989C66.0128 79.8244 66.0228 79.8487 66.0384 79.8692C66.0539 79.8898 66.0746 79.9059 66.0983 79.9161L67.1777 80.3765C66.2947 82.01 64.9466 83.3454 63.3039 84.2139C61.6611 85.0823 59.7974 85.4449 57.9483 85.2558C56.0992 85.0667 54.3478 84.3343 52.9154 83.1513C51.4831 81.9683 50.434 80.3877 49.9009 78.6093L47.9768 79.1812C48.6896 81.5266 50.1364 83.5821 52.105 85.0458C54.0736 86.5095 56.4602 87.3043 58.9144 87.3136C61.853 87.3241 64.6799 86.1895 66.794 84.151L66.9773 83.9709C67.8049 83.1478 68.5012 82.2027 69.0417 81.1686L70.3845 81.7405C70.4034 81.7445 70.4229 81.7445 70.4418 81.7405C70.474 81.7401 70.5053 81.729 70.5305 81.709H70.5449ZM68.0768 73.7396L70.0323 73.2735C69.4755 70.963 68.2098 68.884 66.412 67.3269C64.6143 65.7699 62.3744 64.8127 60.0054 64.589C57.6363 64.3654 55.2565 64.8865 53.1985 66.0795C51.1405 67.2725 49.5071 69.0779 48.5266 71.2433L47.3813 70.7629C47.3574 70.7527 47.3312 70.7492 47.3055 70.7527C47.2798 70.7562 47.2555 70.7667 47.2353 70.7829C47.2196 70.7995 47.2081 70.8195 47.2017 70.8414C47.1952 70.8632 47.194 70.8863 47.198 70.9087L47.9482 75.0636C47.9512 75.087 47.9605 75.1092 47.9752 75.1279C47.9898 75.1465 48.0091 75.1608 48.0312 75.1694C48.049 75.1745 48.0679 75.1745 48.0856 75.1694C48.1142 75.1711 48.1425 75.163 48.1658 75.1465L51.6819 72.8417C51.7042 72.8277 51.7219 72.8076 51.7331 72.7838C51.7443 72.76 51.7484 72.7334 51.7449 72.7073C51.7433 72.6816 51.7344 72.6569 51.7191 72.6361C51.7039 72.6154 51.683 72.5994 51.659 72.5901L50.359 72.0382C50.571 71.5772 50.819 71.1336 51.1006 70.7114C52.1144 69.1874 53.552 67.9924 55.2367 67.2734C56.9214 66.5544 58.7797 66.3428 60.5833 66.6645C62.3868 66.9862 64.0569 67.8273 65.3882 69.0842C66.7195 70.3412 67.654 71.9593 68.0768 73.7396Z" fill="#EFFF10"/>
<path d="M70.585 81.5832C70.5882 81.6059 70.5863 81.6289 70.5794 81.6507C70.5724 81.6725 70.5606 81.6925 70.5449 81.709C70.5196 81.729 70.4884 81.7401 70.4561 81.7405C70.4372 81.7445 70.4177 81.7445 70.3988 81.7405L69.056 81.1686C68.5155 82.2027 67.8193 83.1478 66.9916 83.9709L66.8083 84.1511C64.6907 86.193 61.858 87.3278 58.9144 87.3137C56.4612 87.3031 54.0759 86.5077 52.1084 85.0441C50.141 83.5805 48.695 81.5257 47.9826 79.1813L49.9067 78.6094C50.442 80.3857 51.492 81.9641 52.9244 83.1453C54.3567 84.3265 56.1071 85.0577 57.955 85.2467C59.8028 85.4357 61.6654 85.074 63.3077 84.2073C64.95 83.3406 66.2986 82.0076 67.1834 80.3765L66.1069 79.9247C66.0832 79.9145 66.0625 79.8984 66.047 79.8778C66.0314 79.8573 66.0215 79.833 66.0181 79.8075C66.0147 79.7752 66.0228 79.7428 66.041 79.716C66.052 79.6997 66.0656 79.6852 66.0811 79.6731L69.5971 77.3512C69.6178 77.3399 69.6409 77.334 69.6644 77.334C69.6879 77.334 69.7111 77.3399 69.7317 77.3512C69.7536 77.3596 69.7731 77.3734 69.7881 77.3915C69.8031 77.4095 69.8133 77.4311 69.8176 77.4541L70.585 81.5832Z" fill="#292929"/>
<path d="M70.018 73.2735L68.0768 73.7396C67.652 71.9628 66.7173 70.3483 65.3874 69.0941C64.0574 67.8399 62.39 67.0005 60.5894 66.6787C58.7888 66.3569 56.9334 66.5668 55.2505 67.2826C53.5675 67.9984 52.1303 69.1891 51.1149 70.7085C50.8333 71.1307 50.5853 71.5743 50.3734 72.0354L51.6733 72.5872C51.6973 72.5965 51.7182 72.6125 51.7335 72.6333C51.7487 72.654 51.7576 72.6788 51.7592 72.7045C51.7627 72.7305 51.7586 72.7571 51.7474 72.7809C51.7363 72.8047 51.7185 72.8249 51.6962 72.8389L48.1801 75.1436C48.1568 75.1601 48.1285 75.1682 48.1 75.1665C48.0822 75.1717 48.0633 75.1717 48.0456 75.1665C48.0235 75.1579 48.0041 75.1436 47.9895 75.125C47.9749 75.1064 47.9656 75.0842 47.9625 75.0607L47.1751 70.9201C47.1711 70.8977 47.1723 70.8747 47.1788 70.8528C47.1852 70.831 47.1967 70.8109 47.2124 70.7943C47.2326 70.7781 47.2569 70.7676 47.2826 70.7641C47.3083 70.7606 47.3345 70.7641 47.3584 70.7743L48.5037 71.2547C49.4804 69.0849 51.1127 67.2748 53.1715 66.0782C55.2304 64.8817 57.6126 64.3587 59.9842 64.5826C62.3557 64.8064 64.5976 65.766 66.3955 67.3266C68.1934 68.8873 69.4571 70.9708 70.0094 73.2849L70.018 73.2735Z" fill="#292929"/>
<path d="M75.6328 59.1877H42.1301V92.6495H75.6328V59.1877Z" stroke="#292929" stroke-width="2" stroke-linecap="round" stroke-linejoin="round"/>
<path d="M70.5449 81.7091C70.5606 81.6925 70.5724 81.6725 70.5793 81.6508C70.5863 81.629 70.5882 81.6059 70.5849 81.5833L69.8176 77.4513C69.8133 77.4282 69.8031 77.4067 69.7881 77.3886C69.773 77.3706 69.7536 77.3567 69.7317 77.3483C69.7111 77.3371 69.6879 77.3312 69.6644 77.3312C69.6409 77.3312 69.6178 77.3371 69.5971 77.3483L66.0725 79.6645C66.057 79.6767 66.0434 79.6911 66.0324 79.7074C66.0142 79.7343 66.0061 79.7667 66.0095 79.7989C66.0129 79.8245 66.0228 79.8487 66.0384 79.8693C66.0539 79.8898 66.0746 79.906 66.0983 79.9162L67.1777 80.3765C66.2947 82.01 64.9466 83.3454 63.3039 84.2139C61.6611 85.0824 59.7974 85.445 57.9483 85.2558C56.0992 85.0667 54.3478 84.3343 52.9154 83.1513C51.4831 81.9683 50.434 80.3877 49.9009 78.6094L47.9768 79.1813C48.6896 81.5267 50.1364 83.5821 52.105 85.0458C54.0736 86.5095 56.4602 87.3044 58.9144 87.3137C61.853 87.3241 64.6799 86.1895 66.794 84.1511L66.9773 83.9709C67.8049 83.1478 68.5012 82.2027 69.0417 81.1686L70.3845 81.7405C70.4034 81.7445 70.4229 81.7445 70.4418 81.7405C70.474 81.7401 70.5053 81.7291 70.5305 81.7091H70.5449Z" stroke="#292929" stroke-width="2" stroke-linecap="round" stroke-linejoin="round"/>
<path d="M47.2152 70.7943C47.1996 70.811 47.1881 70.831 47.1816 70.8528C47.1752 70.8747 47.1739 70.8977 47.178 70.9202L47.9482 75.0636C47.9512 75.087 47.9606 75.1092 47.9752 75.1279C47.9898 75.1465 48.0092 75.1608 48.0312 75.1694C48.049 75.1745 48.0679 75.1745 48.0856 75.1694C48.1142 75.1711 48.1425 75.163 48.1658 75.1465L51.6819 72.8417C51.7042 72.8277 51.7219 72.8076 51.7331 72.7838C51.7443 72.76 51.7484 72.7334 51.7449 72.7073C51.7433 72.6816 51.7344 72.6569 51.7191 72.6361C51.7039 72.6154 51.683 72.5994 51.659 72.5901L50.359 72.0382C50.571 71.5772 50.819 71.1336 51.1006 70.7114C52.1144 69.1874 53.552 67.9924 55.2367 67.2734C56.9214 66.5544 58.7797 66.3428 60.5833 66.6645C62.3868 66.9862 64.0569 67.8273 65.3882 69.0842C66.7195 70.3412 67.654 71.9593 68.0768 73.7396L70.0323 73.2735C69.4755 70.963 68.2098 68.884 66.4121 67.3269C64.6143 65.7699 62.3744 64.8127 60.0054 64.589C57.6363 64.3654 55.2565 64.8865 53.1985 66.0795C51.1405 67.2725 49.5071 69.0779 48.5266 71.2433L47.3813 70.7629C47.3574 70.7527 47.3312 70.7492 47.3055 70.7527C47.2798 70.7562 47.2555 70.7667 47.2353 70.7829L47.2152 70.7943Z" stroke="#292929" stroke-width="2" stroke-linecap="round" stroke-linejoin="round"/>
<path d="M34.2906 199.417H14.5342C14.5343 196.285 13.2931 193.279 11.0818 191.057C8.87049 188.836 5.86869 187.578 2.73198 187.559V167.68C11.1218 167.739 19.148 171.108 25.0599 177.054C30.9719 182.999 34.29 191.038 34.2906 199.417Z" fill="#89E539"/>
<path d="M33.9269 207.538V238.913H2.50865V207.538H33.9269ZM18.2221 237.938L32.9563 223.223L18.2221 208.51L3.49074 223.223L18.2221 237.938Z" fill="white"/>
<path d="M32.9563 223.223L18.2221 237.938L3.49073 223.223L18.2221 208.51L32.9563 223.223Z" fill="#EFFF10"/>
<path d="M18.2221 131.89C21.5564 131.89 24.8159 132.878 27.5883 134.728C30.3607 136.578 32.5215 139.207 33.7975 142.284C35.0735 145.36 35.4074 148.746 34.7569 152.012C34.1064 155.278 32.5008 158.278 30.143 160.632C27.7853 162.987 24.7814 164.591 21.5111 165.24C18.2408 165.89 14.8511 165.556 11.7705 164.282C8.69001 163.008 6.05704 160.85 4.20457 158.081C2.35211 155.312 1.36337 152.057 1.36337 148.727C1.36412 144.262 3.14055 139.98 6.30201 136.823C9.46348 133.665 13.7511 131.891 18.2221 131.89ZM24.1061 148.727C24.1061 147.565 23.761 146.429 23.1144 145.462C22.4679 144.496 21.5489 143.743 20.4738 143.298C19.3986 142.853 18.2156 142.737 17.0742 142.964C15.9328 143.19 14.8844 143.75 14.0615 144.572C13.2386 145.394 12.6782 146.441 12.4512 147.581C12.2242 148.721 12.3407 149.902 12.786 150.976C13.2314 152.05 13.9855 152.967 14.9532 153.613C15.9208 154.259 17.0584 154.603 18.2221 154.603C19.7826 154.603 21.2792 153.984 22.3827 152.882C23.4861 151.78 24.1061 150.286 24.1061 148.727Z" fill="white"/>
<path d="M18.2221 142.851C19.386 142.85 20.5238 143.194 21.4918 143.84C22.4598 144.485 23.2144 145.403 23.6602 146.476C24.106 147.55 24.2229 148.732 23.9962 149.872C23.7695 151.012 23.2093 152.059 22.3866 152.881C21.5638 153.703 20.5154 154.263 19.3739 154.49C18.2325 154.717 17.0493 154.601 15.9739 154.156C14.8986 153.712 13.9795 152.958 13.3328 151.992C12.6862 151.026 12.341 149.889 12.341 148.727C12.341 147.169 12.9605 145.675 14.0634 144.573C15.1662 143.471 16.6621 142.852 18.2221 142.851Z" fill="#292929"/>
<path d="M14.5342 199.417H2.73198V187.559C5.86869 187.578 8.87049 188.836 11.0818 191.057C13.2931 193.279 14.5343 196.285 14.5342 199.417Z" fill="white"/>
<path d="M33.9269 207.538H2.51724V238.907H33.9269V207.538Z" stroke="#292929" stroke-width="2" stroke-linecap="round" stroke-linejoin="round"/>
<path d="M18.2221 208.51L3.49073 223.223L18.2221 237.938L32.9563 223.223L18.2221 208.51Z" stroke="#292929" stroke-width="2" stroke-linecap="round" stroke-linejoin="round"/>
<path d="M14.5342 199.417H34.2906C34.2908 191.036 30.9718 182.995 25.0579 177.049C19.144 171.103 11.1152 167.734 2.72339 167.677V199.417H14.5342Z" stroke="#292929" stroke-width="2" stroke-linecap="round" stroke-linejoin="round"/>
<path d="M14.5342 199.417C14.5343 196.285 13.2931 193.279 11.0818 191.057C8.87049 188.836 5.86869 187.578 2.73198 187.559" stroke="#292929" stroke-width="2" stroke-linecap="round" stroke-linejoin="round"/>
<path d="M35.0837 148.727C35.0843 145.396 34.0958 142.14 32.2434 139.371C30.391 136.601 27.7577 134.442 24.6767 133.167C21.5957 131.892 18.2053 131.558 14.9343 132.208C11.6633 132.857 8.65858 134.461 6.30015 136.816C3.94173 139.171 2.33553 142.171 1.68469 145.438C1.03385 148.705 1.3676 152.091 2.64373 155.168C3.91986 158.245 6.08105 160.875 8.85399 162.726C11.6269 164.576 14.8871 165.564 18.2221 165.564C22.6936 165.564 26.9819 163.79 30.144 160.633C33.3061 157.475 35.0829 153.193 35.0837 148.727Z" stroke="#292929" stroke-width="2" stroke-linecap="round" stroke-linejoin="round"/>
<path d="M24.106 148.727C24.106 147.565 23.761 146.429 23.1144 145.462C22.4679 144.496 21.5489 143.743 20.4738 143.298C19.3986 142.853 18.2156 142.737 17.0742 142.964C15.9328 143.19 14.8844 143.75 14.0615 144.572C13.2386 145.394 12.6782 146.441 12.4512 147.581C12.2242 148.721 12.3407 149.902 12.786 150.976C13.2314 152.05 13.9855 152.967 14.9531 153.613C15.9208 154.259 17.0584 154.603 18.2221 154.603C19.7826 154.603 21.2792 153.984 22.3827 152.882C23.4861 151.78 24.106 150.286 24.106 148.727Z" stroke="#292929" stroke-width="2" stroke-linecap="round" stroke-linejoin="round"/>
<path d="M202.663 128.267C204.126 129.728 205.286 131.462 206.077 133.37C206.869 135.278 207.276 137.323 207.276 139.388C207.277 141.454 206.869 143.499 206.078 145.407C205.287 147.315 204.127 149.049 202.665 150.51C201.202 151.971 199.466 153.129 197.556 153.92C195.645 154.71 193.597 155.117 191.529 155.117C189.461 155.117 187.413 154.711 185.502 153.92C183.592 153.13 181.855 151.972 180.393 150.511L152.084 122.245C151.44 121.605 150.569 121.246 149.66 121.246C148.752 121.246 147.881 121.605 147.237 122.245L124.46 144.995H79.9162L132.857 92.1234C137.314 87.6733 143.358 85.1733 149.66 85.1733C155.963 85.1733 162.007 87.6733 166.463 92.1234L202.663 128.267Z" fill="#89E539"/>
<path d="M108.577 144.987V155.61H103.191V151.195L101.9 152.439C99.7855 154.474 96.963 155.61 94.0263 155.61H62.2873C62.2873 148.844 77.806 147.912 79.9162 144.987H108.577Z" fill="#292929"/>
<path d="M192.175 155.61C187.989 155.736 183.585 153.703 180.393 150.511L152.084 122.245C151.44 121.605 150.569 121.246 149.66 121.246C148.752 121.246 147.881 121.605 147.237 122.245L124.46 144.995H79.9162L132.857 92.1234C137.314 87.6733 143.358 85.1733 149.66 85.1733C155.963 85.1733 162.007 87.6733 166.463 92.1234C166.463 92.1234 202.947 128.565 203.084 128.725" stroke="#292929" stroke-width="2" stroke-linecap="round" stroke-linejoin="round"/>
<path d="M79.9162 144.987C77.8118 147.912 62.2873 148.839 62.2873 155.61H94.0263C96.963 155.61 99.7855 154.474 101.9 152.439L103.191 151.195V155.61H108.577V144.987" stroke="#292929" stroke-width="2" stroke-linecap="round" stroke-linejoin="round"/>
<path d="M241.32 155.61V238.913H187.084C183.683 223.011 173.627 220.798 169.936 220.798C166.861 220.798 164.058 221.867 161.186 221.867C146.707 221.867 155.42 201.019 138.123 201.019C136.751 201.019 135.354 201.096 133.986 201.096C114.914 201.096 130.315 169.727 106.055 169.719V155.61H241.32Z" fill="white"/>
<path d="M187.084 238.913H106.055V169.713C130.315 169.713 114.914 201.09 133.986 201.09C135.354 201.09 136.751 201.013 138.123 201.013C155.42 201.013 146.713 221.861 161.186 221.861C164.05 221.861 166.861 220.792 169.936 220.792C173.63 220.792 183.683 223.005 187.084 238.913Z" fill="white"/>
<path d="M106.055 169.713V155.61H241.32V238.907H106.055V169.713Z" stroke="#292929" stroke-width="2" stroke-linecap="round" stroke-linejoin="round"/>
<path d="M106.055 169.713C130.315 169.713 114.914 201.09 133.986 201.09C135.354 201.09 136.751 201.013 138.123 201.013C155.42 201.013 146.713 221.861 161.186 221.861C164.05 221.861 166.861 220.792 169.936 220.792C173.63 220.792 183.68 223.005 187.084 238.907" stroke="#292929" stroke-width="2" stroke-linecap="round" stroke-linejoin="round"/>
<path d="M252.495 213.783V238.913H209.077V214.035C215.116 217.113 221.754 218.842 228.53 219.102V220.109C228.53 220.375 228.582 220.639 228.684 220.885C228.787 221.131 228.936 221.355 229.125 221.543C229.314 221.731 229.538 221.881 229.785 221.982C230.031 222.084 230.296 222.136 230.563 222.136H234.717C234.984 222.136 235.248 222.084 235.494 221.982C235.741 221.881 235.965 221.731 236.153 221.543C236.342 221.355 236.491 221.131 236.593 220.885C236.695 220.639 236.748 220.375 236.747 220.109V218.753C242.252 218.05 247.585 216.367 252.495 213.783Z" fill="#89E539"/>
<path d="M252.495 202.128V213.783C247.585 216.367 242.252 218.05 236.747 218.753V218.181C236.748 217.915 236.695 217.651 236.593 217.405C236.491 217.159 236.342 216.935 236.153 216.747C235.965 216.559 235.741 216.409 235.494 216.307C235.248 216.206 234.984 216.154 234.717 216.154H230.563C230.296 216.154 230.031 216.206 229.785 216.307C229.538 216.409 229.314 216.558 229.125 216.747C228.936 216.935 228.787 217.159 228.684 217.405C228.582 217.651 228.53 217.915 228.53 218.181V219.105C221.754 218.844 215.116 217.114 209.077 214.035V202.128C209.077 200.18 208.302 198.311 206.922 196.934C205.543 195.556 203.672 194.782 201.721 194.782H245.136C247.088 194.782 248.959 195.556 250.339 196.933C251.719 198.311 252.494 200.18 252.495 202.128Z" fill="#89E539"/>
<path d="M238.958 194.782H234.949C234.949 194.782 234.076 185.829 225.099 184.659C225.764 184.573 226.434 184.531 227.104 184.534C237.958 184.534 238.958 194.782 238.958 194.782Z" fill="white"/>
<path d="M236.756 218.753V220.117C236.756 220.384 236.704 220.647 236.602 220.893C236.5 221.14 236.351 221.363 236.162 221.552C235.973 221.74 235.749 221.889 235.503 221.991C235.257 222.093 234.992 222.145 234.726 222.145H230.563C230.296 222.145 230.031 222.093 229.785 221.991C229.538 221.889 229.314 221.74 229.125 221.552C228.936 221.363 228.787 221.14 228.684 220.894C228.582 220.648 228.53 220.384 228.53 220.117V218.187C228.53 217.921 228.582 217.657 228.684 217.411C228.787 217.164 228.936 216.941 229.125 216.752C229.314 216.564 229.538 216.415 229.785 216.313C230.031 216.211 230.296 216.159 230.563 216.16H234.717C234.984 216.159 235.248 216.211 235.494 216.313C235.741 216.415 235.965 216.564 236.153 216.753C236.342 216.941 236.491 217.165 236.593 217.411C236.695 217.657 236.748 217.921 236.747 218.187L236.756 218.753Z" fill="white"/>
<path d="M234.955 194.782H215.247C215.247 194.782 216.12 185.829 225.097 184.659C234.081 185.829 234.955 194.782 234.955 194.782Z" fill="white"/>
<path d="M223.104 184.534H227.112C226.442 184.531 225.773 184.573 225.108 184.659C216.132 185.829 215.259 194.782 215.259 194.782H211.25C211.25 194.782 212.252 184.534 223.104 184.534Z" fill="white"/>
<path d="M209.077 214.035V238.913H194.366V202.128C194.366 200.18 195.141 198.311 196.52 196.934C197.899 195.556 199.77 194.782 201.721 194.782C203.672 194.782 205.543 195.556 206.922 196.934C208.302 198.311 209.077 200.18 209.077 202.128V214.035Z" fill="#292929"/>
<path d="M201.721 194.782C199.77 194.782 197.899 195.556 196.52 196.934C195.141 198.311 194.366 200.18 194.366 202.128V238.913H209.077V202.128C209.077 200.18 208.302 198.311 206.922 196.934C205.543 195.556 203.672 194.782 201.721 194.782Z" stroke="#292929" stroke-width="2" stroke-linecap="round" stroke-linejoin="round"/>
<path d="M201.721 194.782H245.136C247.088 194.782 248.959 195.556 250.339 196.933C251.719 198.311 252.494 200.18 252.495 202.128V238.913H209.077" stroke="#292929" stroke-width="2" stroke-linecap="round" stroke-linejoin="round"/>
<path d="M236.756 218.753C242.26 218.05 247.594 216.367 252.504 213.783" stroke="#292929" stroke-width="2" stroke-linecap="round" stroke-linejoin="round"/>
<path d="M209.077 214.035C215.116 217.113 221.754 218.842 228.53 219.102" stroke="#292929" stroke-width="2" stroke-linecap="round" stroke-linejoin="round"/>
<path d="M236.756 218.753V220.117C236.756 220.384 236.704 220.647 236.602 220.893C236.5 221.14 236.351 221.363 236.162 221.552C235.973 221.74 235.749 221.889 235.503 221.991C235.257 222.093 234.992 222.145 234.726 222.145H230.563C230.296 222.145 230.031 222.093 229.785 221.991C229.538 221.889 229.314 221.74 229.125 221.552C228.936 221.363 228.787 221.14 228.684 220.894C228.582 220.648 228.53 220.384 228.53 220.117V218.187C228.53 217.921 228.582 217.657 228.684 217.411C228.787 217.164 228.936 216.941 229.125 216.752C229.314 216.564 229.538 216.415 229.785 216.313C230.031 216.211 230.296 216.159 230.563 216.16H234.717C234.984 216.159 235.248 216.211 235.494 216.313C235.741 216.415 235.965 216.564 236.153 216.753C236.342 216.941 236.491 217.165 236.593 217.411C236.695 217.657 236.748 217.921 236.747 218.187L236.756 218.753Z" stroke="#292929" stroke-width="2" stroke-linecap="round" stroke-linejoin="round"/>
<path d="M215.247 194.782C215.247 194.782 216.12 185.838 225.097 184.659C225.761 184.573 226.431 184.531 227.101 184.534C237.953 184.534 238.952 194.782 238.952 194.782" stroke="#292929" stroke-width="2" stroke-linecap="round" stroke-linejoin="round"/>
<path d="M225.105 184.659C234.081 185.829 234.955 194.782 234.955 194.782" stroke="#292929" stroke-width="2" stroke-linecap="round" stroke-linejoin="round"/>
<path d="M211.253 194.782C211.253 194.782 212.252 184.534 223.104 184.534H227.112" stroke="#292929" stroke-width="2" stroke-linecap="round" stroke-linejoin="round"/>
</svg>
