<svg width="279" height="266" viewBox="0 0 279 266" fill="none" xmlns="http://www.w3.org/2000/svg">
<path d="M259.177 83.2622C264.693 83.6282 264.044 89.3608 261.577 91.783C256.281 96.9871 251.439 102.309 246.449 108.245C243.731 111.467 240.372 114.087 236.585 115.936C232.797 117.785 228.666 118.823 224.454 118.985L181.86 120.662C177.641 120.669 173.473 119.739 169.659 117.938C165.844 116.136 162.477 113.51 159.802 110.247L154.025 103.245L174.491 84.9269L179.266 90.7422C179.906 91.5182 180.71 92.1432 181.62 92.5724C182.53 93.0015 183.524 93.2244 184.53 93.2249H212.945C215.017 93.2229 217.051 92.6712 218.841 91.6261C220.63 90.581 222.11 89.0798 223.13 87.2759C224.904 84.14 226.223 80.7671 227.045 77.2591C227.265 76.3119 227.748 75.4464 228.44 74.7627C229.131 74.079 230.002 73.6051 230.952 73.3959C231.901 73.1868 232.891 73.2509 233.805 73.5808C234.72 73.9107 235.522 74.493 236.12 75.2602C235.374 77.7054 235.409 80.3225 236.222 82.7465C235.829 84.0197 235.389 85.2717 234.901 86.5024C234.403 87.7495 234.272 89.1131 234.525 90.432C234.778 91.7508 235.403 92.9696 236.327 93.9442C236.425 94.0493 237.062 94.6954 237.062 94.6954C237.379 95.0167 237.755 95.2724 238.171 95.448C238.586 95.6236 239.032 95.7157 239.483 95.719C239.934 95.7222 240.382 95.6366 240.8 95.467C241.218 95.2974 241.598 95.0471 241.919 94.7304C243.148 93.5241 244.593 92.184 246.016 90.9268C248.752 91.3304 251.545 90.7928 253.936 89.402C256.327 88.0113 258.175 85.8499 259.177 83.2717V83.2622Z" fill="white"/>
<path d="M277.387 196C277.387 197.101 277.348 198.194 277.269 199.278C267.962 202.55 261.163 209.375 254.626 209.375C252.84 209.375 251.226 209.056 251.226 207.293C251.226 198.081 265.002 191.028 270.846 184.996C272.437 183.351 273.711 181.928 274.704 180.661C276.486 185.578 277.394 190.769 277.387 196Z" fill="#292929"/>
<path d="M238.848 70.543C240.886 68.3556 243.658 66.9951 246.635 66.7212C249.613 66.4473 252.587 67.2791 254.99 69.0579C257.393 70.8367 259.057 73.438 259.665 76.3655C260.272 79.293 259.781 82.3417 258.284 84.93C256.788 87.5183 254.39 89.4649 251.55 90.3985C248.71 91.3321 245.625 91.1873 242.884 89.9917C240.144 88.7961 237.94 86.6335 236.692 83.9164C235.444 81.1992 235.241 78.1179 236.12 75.2602C236.66 73.5016 237.593 71.8887 238.848 70.543Z" fill="#EFFF10"/>
<path d="M274.704 180.661C273.698 181.934 272.444 183.351 270.846 184.996C265.002 191.044 251.226 198.081 251.226 207.293C251.226 209.056 252.84 209.374 254.626 209.374C261.163 209.374 267.962 202.55 277.269 199.278C276.718 207.023 274.158 214.491 269.84 220.945C255.199 221.989 247.559 231.426 241.302 231.426C227.478 231.426 239.901 217.475 223.496 217.475C215.316 217.475 209.259 222.081 201.776 228.934C195.614 223.215 191.185 215.879 188.993 207.764C196.088 200.828 204.933 191.289 216.573 191.289C228.723 191.289 220.539 202.614 232.978 202.614C245.834 202.614 243.266 180.83 266.644 166.837C270.136 170.926 272.865 175.608 274.704 180.661Z" fill="white"/>
<path d="M259.97 55.4017H255.218C255.226 50.6291 253.969 45.9396 251.576 41.8104L255.714 39.4264C258.516 44.2832 259.984 49.7945 259.97 55.4017Z" fill="#292929"/>
<path d="M251.08 155.057C257.067 157.798 262.38 161.818 266.644 166.834C243.266 180.839 245.834 202.611 232.978 202.611C220.539 202.611 228.723 191.286 216.573 191.286C204.933 191.286 196.088 200.835 188.993 207.761C186.672 199.163 186.947 190.071 189.782 181.629H220.491V152.632C222.85 151.979 225.26 151.525 227.695 151.276C229.238 157.072 237.533 156.735 237.533 162.658C237.533 164.966 232.514 169.422 232.514 172.844C232.514 174.874 234.694 175.568 236.68 175.568C244.746 175.555 247.063 164.959 251.08 155.057Z" fill="#EFFF10"/>
<path d="M269.84 220.945C266.225 226.369 261.475 230.943 255.917 234.349C250.359 237.755 244.127 239.913 237.653 240.672C231.179 241.431 224.617 240.773 218.422 238.745C212.227 236.716 206.547 233.366 201.776 228.924C209.259 222.084 215.316 217.466 223.496 217.466C239.901 217.466 227.478 231.417 241.302 231.417C247.579 231.429 255.192 221.992 269.84 220.945Z" fill="#89E539"/>
<path d="M255.695 39.4264L251.557 41.8104C249.169 37.6788 245.738 34.2466 241.607 31.8573L243.988 27.7195C248.846 30.5318 252.883 34.5682 255.695 39.4264Z" fill="white"/>
<path d="M255.218 55.4017H234.863C234.864 54.5052 234.688 53.6173 234.345 52.7887C234.003 51.9602 233.501 51.2073 232.867 50.5731L235.451 37.2046C235.484 37.0551 235.461 36.899 235.387 36.7649C235.314 36.6307 235.194 36.5276 235.051 36.4742C234.908 36.4209 234.75 36.421 234.607 36.4745C234.463 36.5279 234.344 36.6312 234.271 36.7654L227.507 48.5742C225.788 48.7042 224.182 49.4785 223.01 50.7421C221.838 52.0057 221.186 53.6654 221.185 55.3889H200.84C200.801 51.7943 201.475 48.2277 202.824 44.8954C204.173 41.5632 206.169 38.5315 208.697 35.9759C211.225 33.4202 214.235 31.3913 217.553 30.0067C220.87 28.622 224.429 27.9091 228.024 27.9091C231.619 27.9091 235.178 28.622 238.495 30.0067C241.813 31.3913 244.823 33.4202 247.351 35.9759C249.879 38.5315 251.875 41.5632 253.224 44.8954C254.573 48.2277 255.247 51.7943 255.208 55.3889L255.218 55.4017Z" fill="#89E539"/>
<path d="M253.063 14.0263C253.062 17.0793 251.989 20.0349 250.03 22.3772C248.072 24.7194 245.353 26.2993 242.349 26.8409C237.835 24.5789 232.849 23.4186 227.8 23.4551C222.751 23.4916 217.782 24.7239 213.301 27.051H167.622V1.00159H240.038C241.748 1.00159 243.442 1.33848 245.022 1.99303C246.603 2.64759 248.038 3.60698 249.248 4.81643C250.457 6.02589 251.417 7.46172 252.071 9.04195C252.726 10.6222 253.063 12.3159 253.063 14.0263Z" fill="white"/>
<path d="M243.998 27.7385L241.617 31.8763C237.486 29.4862 232.798 28.2311 228.026 28.2382V23.4638C232.999 23.4554 237.906 24.6154 242.349 26.8504C242.906 27.121 243.457 27.4202 243.998 27.7385Z" fill="#292929"/>
<path d="M251.08 155.057C247.072 164.947 244.755 175.543 236.69 175.543C234.703 175.543 232.523 174.849 232.523 172.818C232.523 169.403 237.543 164.947 237.543 162.633C237.543 156.709 229.248 157.047 227.704 151.25C229.271 151.087 230.846 151.005 232.421 151.005C238.86 150.999 245.224 152.381 251.08 155.057Z" fill="white"/>
<path d="M235.143 36.5362C235.26 36.6009 235.354 36.701 235.411 36.8221C235.468 36.9433 235.486 37.0794 235.461 37.211L232.876 50.5795C232.242 49.9419 231.487 49.4362 230.656 49.0914C229.826 48.7467 228.935 48.5699 228.035 48.571C227.86 48.571 227.685 48.571 227.516 48.5933L234.28 36.7845C234.362 36.6376 234.499 36.529 234.66 36.4825C234.822 36.436 234.995 36.4553 235.143 36.5362Z" fill="white"/>
<path d="M232.867 50.5731C233.969 51.6768 234.661 53.1242 234.828 54.6752C234.995 56.2262 234.627 57.7877 233.785 59.1008C232.943 60.4138 231.677 61.3994 230.197 61.8943C228.718 62.3891 227.114 62.3633 225.651 61.8213C224.188 61.2793 222.954 60.2535 222.155 58.9141C221.355 57.5748 221.037 56.0022 221.254 54.4574C221.47 52.9125 222.208 51.4881 223.346 50.4203C224.483 49.3526 225.951 48.7057 227.507 48.587C227.675 48.571 227.851 48.5647 228.026 48.5647C228.925 48.5635 229.816 48.7404 230.647 49.0851C231.478 49.4298 232.232 49.9355 232.867 50.5731Z" fill="white"/>
<path d="M228.026 23.4574V28.2319C223.252 28.2242 218.562 29.4793 214.431 31.87L212.05 27.7321C212.461 27.4966 212.875 27.2674 213.298 27.0542C217.845 24.6832 222.898 23.4491 228.026 23.4574Z" fill="white"/>
<path d="M220.491 152.625V181.622H189.782C192.143 174.648 196.176 168.358 201.529 163.303C206.883 158.248 213.393 154.582 220.491 152.625Z" fill="#292929"/>
<path d="M220.491 135.431V152.619C213.393 154.576 206.883 158.242 201.529 163.297C196.176 168.352 192.143 174.642 189.782 181.616H174.303V135.431H220.491Z" fill="#89E539"/>
<path d="M212.05 27.7385L214.431 31.8764C210.3 34.2664 206.868 37.6984 204.478 41.8295L200.34 39.4454C203.152 34.5861 207.19 30.5495 212.05 27.7385Z" fill="#292929"/>
<path d="M200.353 39.4264L204.491 41.8104C202.101 45.9407 200.845 50.6297 200.853 55.4017H196.078C196.069 49.7928 197.544 44.2814 200.353 39.4264Z" fill="white"/>
<path d="M77.6081 100.103L73.6931 109.585L49.7253 95.7139L60.8116 68.872C64.3829 60.1729 70.2873 55.4303 75.9466 52.7407C82.077 49.8347 89.2069 50.4872 94.9585 54.0903C101.188 57.9894 109.68 56.5826 114.349 50.9773C119.315 45.0157 127.227 42.3197 134.672 44.5159C139.612 45.9801 144.858 48.9243 149.467 54.5359L174.491 84.9173L154.025 103.235L134.38 79.3853V111.422H79.2155L77.6081 100.103Z" fill="#EFFF10"/>
<path d="M154.693 15.9615C155.404 16.6721 156.339 17.1142 157.339 17.2126C158.34 17.311 159.343 17.0595 160.179 16.5011C161.014 15.9427 161.631 15.1118 161.922 14.15C162.214 13.1883 162.163 12.1551 161.779 11.2265C161.394 10.2979 160.7 9.53132 159.814 9.05737C158.927 8.58341 157.904 8.43139 156.918 8.62719C155.933 8.823 155.045 9.35452 154.407 10.1312C153.769 10.9079 153.42 11.8817 153.42 12.8868C153.419 13.458 153.53 14.0238 153.749 14.5516C153.967 15.0794 154.288 15.5586 154.693 15.9615ZM167.622 1.00159V27.0478H156.371C154.643 27.0748 152.928 26.7579 151.324 26.1156C149.72 25.4732 148.261 24.5182 147.029 23.3063C145.798 22.0943 144.821 20.6495 144.153 19.056C143.486 17.4626 143.142 15.7523 143.142 14.0247C143.142 12.2971 143.486 10.5868 144.153 8.99337C144.821 7.39991 145.798 5.95512 147.029 4.74314C148.261 3.53115 149.72 2.57619 151.324 1.93384C152.928 1.29148 154.643 0.974586 156.371 1.00159H167.622Z" fill="#292929"/>
<path d="M113.522 148.713V219.964L127.052 178.831L113.522 148.713ZM104.195 248.318H79.2155V111.422H134.38L158.863 165.927C162.076 173.059 162.474 181.142 159.977 188.555L138.113 253.672L104.195 248.318Z" fill="#89E539"/>
<path d="M157.762 8.5452C158.476 8.54447 159.18 8.72007 159.811 9.05643C160.441 9.3928 160.979 9.87955 161.377 10.4735C161.774 11.0675 162.019 11.7504 162.09 12.4616C162.16 13.1729 162.054 13.8905 161.781 14.551C161.508 15.2114 161.076 15.7942 160.523 16.2478C159.971 16.7013 159.315 17.0116 158.614 17.1511C157.913 17.2906 157.189 17.2551 156.505 17.0475C155.821 16.84 155.198 16.467 154.693 15.9615C154.086 15.3545 153.672 14.5809 153.504 13.7386C153.336 12.8963 153.422 12.0231 153.75 11.2295C154.079 10.436 154.635 9.75762 155.349 9.28037C156.063 8.80311 156.903 8.54837 157.762 8.54838V8.5452Z" fill="#292929"/>
<path d="M148.448 261.18V265H98.7144L104.195 248.318L138.113 253.669C140.768 257.867 143.524 259.86 148.448 261.18Z" fill="#292929"/>
<path d="M104.141 17.2856C106.297 17.6002 108.348 18.4153 110.132 19.6654C111.915 20.9155 113.382 22.5659 114.413 24.4845C115.444 26.4031 116.011 28.5365 116.069 30.7138C116.128 32.8912 115.675 35.0519 114.748 37.0229C113.821 38.9939 112.446 40.7204 110.731 42.0642C109.017 43.4079 107.012 44.3315 104.877 44.761C102.742 45.1905 100.535 45.1139 98.4349 44.5374C96.3345 43.9609 94.3982 42.9005 92.7813 41.4411C97.0899 39.2877 100.552 35.7517 102.614 31.3985C104.675 27.0454 105.218 22.1266 104.154 17.4288C104.151 17.3716 104.148 17.327 104.141 17.2856Z" fill="white"/>
<path d="M104.154 17.4289C105.218 22.1267 104.675 27.0455 102.614 31.3986C100.552 35.7517 97.0898 39.2878 92.7813 41.4412C91.3627 40.1574 90.2233 38.5956 89.4337 36.8528C88.6441 35.1101 88.2212 33.2236 88.1914 31.3105C88.1615 29.3975 88.5253 27.4987 89.2602 25.7322C89.995 23.9657 91.0852 22.3691 92.463 21.0416C91.6205 19.5985 91.3858 17.8798 91.8105 16.2636C92.2352 14.6474 93.2846 13.2662 94.7277 12.4237C96.1708 11.5812 97.8895 11.3465 99.5057 11.7712C101.122 12.1959 102.503 13.2453 103.346 14.6884C103.657 15.5326 103.917 16.3945 104.125 17.2698L104.154 17.4003V17.4289Z" fill="#292929"/>
<path d="M104.195 248.321L98.7144 264.984H79.2155V248.321H104.195Z" fill="#292929"/>
<path d="M73.6771 109.585L66.4168 127.168C65.2431 130.012 63.3896 132.525 61.0187 134.486C58.6479 136.447 55.8322 137.796 52.8185 138.416C49.8048 139.035 46.6851 138.906 43.7329 138.04C40.7808 137.173 38.0863 135.595 35.8858 133.445L11.9085 105.944C7.80611 101.24 4.83731 95.6576 3.23045 89.6264C1.6236 83.5952 1.4215 77.2757 2.63971 71.1542C3.9129 64.7182 5.21155 57.7061 6.0423 51.8526C6.19687 50.719 6.77711 49.6866 7.66518 48.9653C8.55325 48.2439 9.68259 47.8875 10.8239 47.9685C11.9651 48.0496 13.0328 48.5619 13.8101 49.4015C14.5873 50.2412 15.0159 51.3451 15.0087 52.4892V53.3327C13.6221 55.3821 12.8898 57.804 12.9085 60.2784C12.9273 62.7527 13.6962 65.1632 15.1138 67.1914C15.0095 68.5734 14.9851 69.9603 15.0405 71.3451C15.0802 72.2603 15.3701 73.1471 15.8788 73.909C16.3875 74.6708 17.0955 75.2785 17.9257 75.6658C18.7558 76.0532 19.6763 76.2053 20.587 76.1057C21.4976 76.0061 22.3635 75.6586 23.0903 75.101C24.4271 74.0719 25.7406 73.117 27.0308 72.2364C29.7008 71.8125 32.1536 70.5111 34.0015 68.5378C34.825 68.4952 35.6433 68.6908 36.3585 69.1012C37.0737 69.5115 37.6555 70.1193 38.0343 70.8518C38.5337 71.8611 38.6248 73.0241 38.2886 74.0989C37.9525 75.1737 37.215 76.0775 36.2295 76.6225C35.9113 76.788 35.6248 76.9631 35.3224 77.1381C34.0172 77.9016 32.9058 78.956 32.0746 80.2191C31.2434 81.4823 30.7149 82.9202 30.5301 84.4209C30.3453 85.9217 30.5093 87.4449 31.0092 88.8719C31.5092 90.299 32.3316 91.5914 33.4126 92.6487L45.1419 104.13C45.2276 104.215 45.3329 104.277 45.4485 104.312C45.5641 104.346 45.6865 104.352 45.8047 104.328C45.923 104.304 46.0336 104.251 46.1267 104.175C46.2198 104.098 46.2926 103.999 46.3386 103.888L49.7062 95.7267L73.6771 109.585Z" fill="white"/>
<path d="M62.9664 132.633V161.821H39.5366C39.5366 159.389 39.0577 156.982 38.1272 154.735C37.1967 152.489 35.8329 150.448 34.1136 148.729C32.3943 147.009 30.3532 145.646 28.1068 144.715C25.8604 143.785 23.4528 143.306 21.0213 143.306V130.892H33.6577L35.8858 133.438C37.6942 135.206 39.8405 136.591 42.1964 137.511C44.5522 138.431 47.0693 138.866 49.5972 138.791C52.1251 138.716 54.6119 138.132 56.909 137.074C59.2061 136.016 61.2662 134.505 62.9664 132.633Z" fill="#EFFF10"/>
<path d="M39.5366 161.821H21.0213V143.306C23.4528 143.306 25.8604 143.785 28.1068 144.715C30.3532 145.646 32.3943 147.009 34.1136 148.729C35.8329 150.448 37.1967 152.489 38.1272 154.735C39.0577 156.982 39.5366 159.389 39.5366 161.821Z" fill="#292929"/>
<path d="M34.0588 51.8877C35.5626 53.5085 36.5978 55.5075 37.0538 57.671C37.5098 59.8345 37.3694 62.0812 36.6477 64.1711C35.926 66.261 34.6501 68.1156 32.9562 69.5367C31.2624 70.9578 29.2143 71.892 27.0308 72.2396C26.3993 72.3414 25.7607 72.3925 25.121 72.3924C23.0939 72.3927 21.0987 71.8882 19.3154 70.9244C17.5321 69.9607 16.0169 68.568 14.9065 66.872C13.7962 65.1761 13.1257 63.2304 12.9555 61.2105C12.7853 59.1906 13.1208 57.1601 13.9318 55.3023C14.7427 53.4445 16.0035 51.8179 17.6004 50.5694C19.1973 49.3208 21.08 48.4896 23.0786 48.1508C25.0771 47.8119 27.1286 47.9761 29.0478 48.6285C30.967 49.2809 32.6935 50.401 34.0715 51.8877H34.0588Z" fill="#89E539"/>
<path d="M98.7144 264.984L127.052 178.831L105.516 130.892" stroke="#292929" stroke-width="2" stroke-linecap="round" stroke-linejoin="round"/>
<path d="M113.522 219.964V148.714" stroke="#292929" stroke-width="2" stroke-linecap="round" stroke-linejoin="round"/>
<path d="M138.113 253.672L159.977 188.555C162.474 181.142 162.076 173.059 158.863 165.927L134.38 111.422H79.2155V264.984" stroke="#292929" stroke-width="2" stroke-linecap="round" stroke-linejoin="round"/>
<path d="M61.6933 264.984H260.002" stroke="#292929" stroke-width="2" stroke-linecap="round" stroke-linejoin="round"/>
<path d="M79.2155 111.422L74.4825 78.4304" stroke="#292929" stroke-width="2" stroke-linecap="round" stroke-linejoin="round"/>
<path d="M79.2155 248.318H104.195L138.113 253.669C140.768 257.861 143.524 259.856 148.448 261.177V264.997" stroke="#292929" stroke-width="2" stroke-linecap="round" stroke-linejoin="round"/>
<path d="M77.6081 100.103L66.4327 127.158C65.259 130.003 63.4055 132.515 61.0347 134.476C58.6638 136.437 55.8481 137.787 52.8344 138.406C49.8207 139.026 46.701 138.897 43.7488 138.03C40.7967 137.163 38.1022 135.586 35.9017 133.435L11.9085 105.944C7.80611 101.24 4.83731 95.6576 3.23045 89.6264C1.6236 83.5952 1.4215 77.2757 2.63971 71.1542C3.9129 64.7182 5.21155 57.7061 6.0423 51.8526C6.19687 50.719 6.77711 49.6866 7.66518 48.9653C8.55325 48.2439 9.68259 47.8875 10.8239 47.9685C11.9651 48.0496 13.0328 48.5619 13.8101 49.4015C14.5873 50.2412 15.0159 51.3451 15.0087 52.4892V53.3327" stroke="#292929" stroke-width="2" stroke-linecap="round" stroke-linejoin="round"/>
<path d="M259.177 83.2622C260.122 80.8314 260.264 78.1618 259.582 75.6445C258.9 73.1273 257.43 70.8945 255.387 69.2734C253.344 67.6522 250.835 66.7279 248.229 66.6356C245.623 66.5434 243.055 67.2882 240.903 68.7609C238.75 70.2336 237.126 72.3568 236.267 74.8196C235.409 77.2824 235.362 79.9553 236.133 82.4468C236.904 84.9383 238.452 87.1176 240.551 88.6653C242.651 90.213 245.19 91.0479 247.798 91.0477C250.259 91.0497 252.663 90.3071 254.694 88.9176C256.725 87.528 258.288 85.5565 259.177 83.2622Z" stroke="#292929" stroke-width="2" stroke-linecap="round" stroke-linejoin="round"/>
<path d="M247.798 78.841L238.848 70.543" stroke="#292929" stroke-width="2" stroke-linecap="round" stroke-linejoin="round"/>
<path d="M15.1137 67.1882C13.594 65.0179 12.8218 62.412 12.9139 59.7642C13.0059 57.1163 13.9572 54.5703 15.624 52.5108C17.2908 50.4514 19.5826 48.9903 22.1531 48.3483C24.7236 47.7064 27.4332 47.9184 29.8726 48.9524C32.312 49.9864 34.3486 51.7862 35.6747 54.0799C37.0009 56.3735 37.5446 59.0365 37.2236 61.6665C36.9027 64.2964 35.7345 66.7505 33.8957 68.6579C32.0569 70.5654 29.6472 71.8225 27.0308 72.2396C26.3993 72.3413 25.7606 72.3924 25.121 72.3923C23.1571 72.3954 21.2215 71.9237 19.4791 71.0176C17.7367 70.1115 16.2391 68.7978 15.1137 67.1882Z" stroke="#292929" stroke-width="2" stroke-linecap="round" stroke-linejoin="round"/>
<path d="M25.1083 60.1857L34.0588 51.8877" stroke="#292929" stroke-width="2" stroke-linecap="round" stroke-linejoin="round"/>
<path d="M15.1138 67.1882C15.0094 68.5713 14.985 69.9592 15.0405 71.3452C15.0802 72.2604 15.3701 73.1472 15.8788 73.909C16.3875 74.6708 17.0955 75.2785 17.9257 75.6658C18.7558 76.0532 19.6763 76.2053 20.587 76.1058C21.4976 76.0062 22.3635 75.6587 23.0903 75.1011C24.4271 74.0719 25.7406 73.117 27.0308 72.2364" stroke="#292929" stroke-width="2" stroke-linecap="round" stroke-linejoin="round"/>
<path d="M134.379 111.422V79.3853L159.802 110.26C162.477 113.522 165.844 116.149 169.659 117.95C173.473 119.751 177.641 120.682 181.86 120.675L224.454 118.997C228.666 118.836 232.797 117.798 236.585 115.949C240.372 114.099 243.731 111.48 246.449 108.258C251.439 102.322 256.281 96.9999 261.577 91.7957C264.044 89.3735 264.693 83.6409 259.177 83.2749" stroke="#292929" stroke-width="2" stroke-linecap="round" stroke-linejoin="round"/>
<path d="M236.228 82.7465C235.836 84.0197 235.395 85.2717 234.907 86.5024C234.408 87.7489 234.277 89.1122 234.528 90.431C234.78 91.7498 235.404 92.9689 236.327 93.9442C236.425 94.0492 237.062 94.6954 237.062 94.6954C237.379 95.0166 237.755 95.2724 238.171 95.448C238.586 95.6236 239.032 95.7157 239.483 95.7189C239.934 95.7222 240.382 95.6366 240.8 95.4669C241.218 95.2973 241.598 95.047 241.919 94.7304C243.148 93.524 244.593 92.184 246.016 90.9267" stroke="#292929" stroke-width="2" stroke-linecap="round" stroke-linejoin="round"/>
<path d="M234.863 55.4017H259.97C259.972 49.7941 258.497 44.2849 255.693 39.4286C252.889 34.5723 248.855 30.5404 243.998 27.7385C243.457 27.4266 242.906 27.1306 242.346 26.8505C237.832 24.5884 232.846 23.4282 227.797 23.4647C222.748 23.5012 217.779 24.7335 213.298 27.0605C212.875 27.277 212.461 27.503 212.05 27.7385C207.192 30.5409 203.158 34.5739 200.354 39.4314C197.55 44.2888 196.075 49.7993 196.078 55.408H221.185" stroke="#292929" stroke-width="2" stroke-linecap="round" stroke-linejoin="round"/>
<path d="M200.84 55.4017C200.833 50.6297 202.088 45.9407 204.478 41.8104C206.87 37.6806 210.301 34.2491 214.431 31.8573C218.565 29.4712 223.253 28.2153 228.026 28.216C232.799 28.2166 237.487 29.4738 241.62 31.861C245.753 34.2482 249.184 37.6814 251.57 41.8154C253.955 45.9494 255.21 50.6385 255.208 55.4112" stroke="#292929" stroke-width="2" stroke-linecap="round" stroke-linejoin="round"/>
<path d="M234.863 55.4017C234.863 53.5884 234.142 51.8494 232.86 50.5672C231.578 49.285 229.839 48.5647 228.026 48.5647C227.851 48.5647 227.675 48.5647 227.507 48.5869C226.18 48.6879 224.912 49.1736 223.858 49.9845C222.803 50.7954 222.008 51.8963 221.57 53.1523C221.132 54.4083 221.07 55.7649 221.391 57.0557C221.712 58.3466 222.403 59.5157 223.379 60.4197C224.355 61.3237 225.573 61.9235 226.885 62.1454C228.196 62.3674 229.544 62.2019 230.763 61.6692C231.982 61.1366 233.019 60.2599 233.747 59.1467C234.476 58.0334 234.863 56.7319 234.863 55.4017Z" stroke="#292929" stroke-width="2" stroke-linecap="round" stroke-linejoin="round"/>
<path d="M227.507 48.5806L234.271 36.7718C234.344 36.6376 234.463 36.5343 234.607 36.4808C234.75 36.4274 234.908 36.4273 235.051 36.4806C235.194 36.5339 235.314 36.6371 235.387 36.7712C235.461 36.9053 235.484 37.0615 235.451 37.211L232.867 50.5795" stroke="#292929" stroke-width="2" stroke-linecap="round" stroke-linejoin="round"/>
<path d="M213.298 27.0478H156.371C154.643 27.0748 152.928 26.7579 151.324 26.1156C149.72 25.4732 148.261 24.5182 147.029 23.3063C145.798 22.0943 144.821 20.6495 144.153 19.056C143.486 17.4626 143.142 15.7523 143.142 14.0247C143.142 12.2971 143.486 10.5868 144.153 8.99337C144.821 7.39991 145.798 5.95512 147.029 4.74314C148.261 3.53115 149.72 2.57619 151.324 1.93384C152.928 1.29148 154.643 0.974586 156.371 1.00159H240.038C243.294 0.997438 246.433 2.21295 248.837 4.40855C251.24 6.60415 252.734 9.62055 253.024 12.8632C253.314 16.1058 252.379 19.3395 250.403 21.9268C248.427 24.5141 245.554 26.2673 242.349 26.8409" stroke="#292929" stroke-width="2" stroke-linecap="round" stroke-linejoin="round"/>
<path d="M167.622 1.00159V27.0478" stroke="#292929" stroke-width="2" stroke-linecap="round" stroke-linejoin="round"/>
<path d="M154.693 15.9615C155.404 16.6721 156.339 17.1142 157.339 17.2126C158.34 17.311 159.343 17.0595 160.179 16.5011C161.014 15.9427 161.631 15.1118 161.922 14.1501C162.214 13.1883 162.163 12.1551 161.779 11.2265C161.394 10.2979 160.7 9.53133 159.814 9.05738C158.927 8.58342 157.904 8.4314 156.918 8.6272C155.933 8.82301 155.045 9.35453 154.407 10.1312C153.769 10.9079 153.42 11.8817 153.42 12.8868C153.419 13.458 153.53 14.0239 153.749 14.5516C153.967 15.0794 154.288 15.5586 154.693 15.9615Z" stroke="white" stroke-width="2" stroke-linecap="round" stroke-linejoin="round"/>
<path d="M154.693 15.9583V15.9615L150.883 19.7683" stroke="white" stroke-width="2" stroke-linecap="round" stroke-linejoin="round"/>
<path d="M154.025 103.235L174.491 84.9173" stroke="#292929" stroke-width="2" stroke-linecap="round" stroke-linejoin="round"/>
<path d="M49.7094 95.7139L73.6771 109.585" stroke="#292929" stroke-width="2" stroke-linecap="round" stroke-linejoin="round"/>
<path d="M34.0015 68.5378C34.825 68.4952 35.6433 68.6908 36.3585 69.1012C37.0738 69.5116 37.6556 70.1193 38.0343 70.8518C38.5337 71.8611 38.6248 73.0241 38.2887 74.0989C37.9525 75.1737 37.2151 76.0775 36.2296 76.6225C35.9113 76.788 35.6248 76.9631 35.3224 77.1381C34.0173 77.9017 32.9059 78.956 32.0747 80.2192C31.2435 81.4823 30.7149 82.9202 30.5302 84.421C30.3454 85.9217 30.5093 87.4449 31.0093 88.8719C31.5092 90.299 32.3317 91.5914 33.4127 92.6487L45.1419 104.13C45.2277 104.215 45.333 104.277 45.4486 104.312C45.5642 104.346 45.6865 104.352 45.8048 104.328C45.9231 104.304 46.0336 104.251 46.1267 104.175C46.2198 104.098 46.2926 103.999 46.3387 103.888L60.7925 68.8752C64.3829 60.1729 70.2873 55.4303 75.9466 52.7407C82.077 49.8347 89.2069 50.4872 94.9585 54.0903C101.188 57.9894 109.68 56.5826 114.349 50.9773C119.315 45.0157 127.227 42.3197 134.672 44.5159C139.612 45.9801 144.858 48.9243 149.467 54.5359L179.278 90.7326C179.919 91.5086 180.723 92.1336 181.633 92.5628C182.543 92.992 183.537 93.2148 184.543 93.2153H212.957C215.03 93.2133 217.064 92.6616 218.854 91.6165C220.643 90.5714 222.123 89.0703 223.143 87.2663C224.917 84.1304 226.236 80.7575 227.058 77.2496C227.281 76.306 227.766 75.4446 228.457 74.7646C229.148 74.0845 230.016 73.6134 230.963 73.4055C231.91 73.1976 232.897 73.2614 233.809 73.5895C234.721 73.9177 235.522 74.4968 236.12 75.2602" stroke="#292929" stroke-width="2" stroke-linecap="round" stroke-linejoin="round"/>
<path d="M104.154 17.413L104.125 17.2825C103.911 16.4048 103.65 15.5389 103.346 14.6883V14.6629" stroke="#292929" stroke-width="2" stroke-linecap="round" stroke-linejoin="round"/>
<path d="M92.7813 41.4412C97.0899 39.2877 100.552 35.7517 102.614 31.3986C104.675 27.0454 105.218 22.1267 104.154 17.4289" stroke="#292929" stroke-width="2" stroke-linecap="round" stroke-linejoin="round"/>
<path d="M104.154 17.4289C104.154 17.3875 104.154 17.3429 104.154 17.3015C104.072 16.3592 103.779 15.4475 103.296 14.634C102.813 13.8205 102.154 13.1262 101.366 12.6025C100.578 12.0788 99.683 11.7392 98.7461 11.609C97.8093 11.4787 96.8551 11.5611 95.9544 11.8501C95.0538 12.139 94.2297 12.6271 93.5435 13.2781C92.8573 13.929 92.3265 14.7262 91.9904 15.6104C91.6544 16.4946 91.5219 17.4431 91.6026 18.3855C91.6833 19.3279 91.9752 20.2401 92.4566 21.0542C91.0788 22.3817 89.9886 23.9783 89.2538 25.7449C88.5189 27.5114 88.1552 29.4102 88.185 31.3232C88.2149 33.2362 88.6377 35.1227 89.4273 36.8655C90.2169 38.6082 91.3563 40.17 92.7749 41.4539C94.3918 42.9132 96.328 43.9736 98.4284 44.5501C100.529 45.1266 102.735 45.2032 104.87 44.7737C107.006 44.3443 109.011 43.4206 110.725 42.0769C112.439 40.7332 113.815 39.0066 114.742 37.0356C115.669 35.0646 116.121 32.9039 116.063 30.7266C116.005 28.5493 115.437 26.4159 114.406 24.4973C113.375 22.5787 111.909 20.9282 110.125 19.6781C108.342 18.428 106.29 17.613 104.135 17.2983H104.119" stroke="#292929" stroke-width="2" stroke-linecap="round" stroke-linejoin="round"/>
<path d="M62.9601 132.633V161.821H21.0213V130.892H33.6577" stroke="#292929" stroke-width="2" stroke-linecap="round" stroke-linejoin="round"/>
<path d="M21.0213 180.336C31.2471 180.336 39.5366 172.047 39.5366 161.821C39.5366 151.595 31.2471 143.306 21.0213 143.306C10.7956 143.306 2.50601 151.595 2.50601 161.821C2.50601 172.047 10.7956 180.336 21.0213 180.336Z" stroke="#292929" stroke-width="2" stroke-linecap="round" stroke-linejoin="round"/>
<path d="M172.174 264.984V224.147L213.008 264.984" stroke="#292929" stroke-width="2" stroke-linecap="round" stroke-linejoin="round"/>
<path d="M277.269 199.278C277.35 198.194 277.389 197.101 277.387 196C277.383 189.696 276.056 183.464 273.49 177.707C270.924 171.95 267.178 166.795 262.493 162.578C257.808 158.361 252.29 155.176 246.295 153.228C240.3 151.279 233.963 150.612 227.695 151.269C225.26 151.521 222.851 151.974 220.491 152.625C212.541 154.809 205.343 159.135 199.684 165.132C194.026 171.13 190.124 178.567 188.406 186.631C186.688 194.695 187.219 203.076 189.942 210.859C192.665 218.642 197.474 225.527 203.845 230.761C210.215 235.996 217.902 239.379 226.065 240.54C234.228 241.702 242.553 240.598 250.131 237.349C257.709 234.099 264.249 228.83 269.035 222.116C273.821 215.402 276.669 207.501 277.269 199.278Z" stroke="#292929" stroke-width="2" stroke-linecap="round" stroke-linejoin="round"/>
<path d="M220.491 152.625V181.622H174.303V135.431H220.491V152.625Z" stroke="#292929" stroke-width="2" stroke-linecap="round" stroke-linejoin="round"/>
<path d="M200.353 39.4264L204.478 41.8104" stroke="#292929" stroke-width="2" stroke-linecap="round" stroke-linejoin="round"/>
<path d="M214.431 31.8573L212.05 27.7321" stroke="#292929" stroke-width="2" stroke-linecap="round" stroke-linejoin="round"/>
<path d="M228.026 23.4574V28.2191" stroke="#292929" stroke-width="2" stroke-linecap="round" stroke-linejoin="round"/>
<path d="M241.617 31.8573L243.998 27.7321" stroke="#292929" stroke-width="2" stroke-linecap="round" stroke-linejoin="round"/>
<path d="M251.567 41.8104L255.695 39.4264" stroke="#292929" stroke-width="2" stroke-linecap="round" stroke-linejoin="round"/>
<path d="M188.986 207.758C196.081 200.822 204.927 191.283 216.567 191.283C228.716 191.283 220.533 202.608 232.972 202.608C245.828 202.608 243.259 180.823 266.638 166.831" stroke="#292929" stroke-width="2" stroke-linecap="round" stroke-linejoin="round"/>
<path d="M201.772 228.927C209.256 222.087 215.313 217.469 223.493 217.469C239.898 217.469 227.475 231.42 241.298 231.42C247.572 231.42 255.189 221.982 269.837 220.938" stroke="#292929" stroke-width="2" stroke-linecap="round" stroke-linejoin="round"/>
<path d="M274.704 180.661C273.698 181.934 272.444 183.351 270.846 184.996C265.002 191.044 251.226 198.081 251.226 207.293C251.226 209.056 252.84 209.375 254.626 209.375C261.163 209.375 267.962 202.55 277.269 199.278" stroke="#292929" stroke-width="2" stroke-linecap="round" stroke-linejoin="round"/>
<path d="M227.695 151.269C229.238 157.066 237.533 156.728 237.533 162.652C237.533 164.959 232.514 169.416 232.514 172.837C232.514 174.868 234.694 175.562 236.68 175.562C244.746 175.562 247.063 164.966 251.07 155.076" stroke="#292929" stroke-width="2" stroke-linecap="round" stroke-linejoin="round"/>
</svg>
